# xmcd
#
# Track frame offsets: 
#        175
#        18570
#        30205
#        46457
#        75882
#        103172
#        123265
#        144420
#        173255
#        191097
#        219655
#        238435
#        270312
#        284695
#        308665
#
# Disc length: 4387 seconds
#
# Revision: 4
# Processed by: cddbd v1.5.2PL0 Copyright (c) Steve Scherf et al.
# Submitted via: ExactAudioCopy v0.99pb3
#
DISCID=c811210f
DTITLE=Steve Hackett - The Unauthorised Biography
DYEAR=1992
DGENRE=Progressive Rock
TTITLE0=Narnia
TTITLE1=Hackett to pieces
TTITLE2=Don't fall away from me
TTITLE3=Spectral Mornings
TTITLE4=The Steppes
TTITLE5=The Virgin and the Gypsey
TTITLE6=The air-conditioned nightmare
TTITLE7=Cell 151
TTITLE8=Slogans
TTITLE9=Icarus Ascending
TTITLE10=Prayers and Dreams
TTITLE11=Star of Sirius
TTITLE12=Hammer in the Sand
TTITLE13=Ace of Wands
TTITLE14=Hoping love will last
EXTD=YEAR: 1992
EXTT0=
EXTT1=
EXTT2=
EXTT3=
EXTT4=
EXTT5=
EXTT6=
EXTT7=
EXTT8=
EXTT9=
EXTT10=
EXTT11=
EXTT12=
EXTT13=
EXTT14=
PLAYORDER=
